<svg version="1.1" id="Layer_1" xmlns="http://www.w3.org/2000/svg" xmlns:xlink="http://www.w3.org/1999/xlink" x="0px" y="0px"
	 width="100%" viewBox="0 0 347 288" enable-background="new 0 0 347 288" xml:space="preserve">
<path fill="#33A8B3" opacity="1.000000" stroke="none" 
	d="
M270.000000,1.000000 
	C277.687592,1.000000 285.375153,1.000000 293.496033,1.371409 
	C294.117706,3.795895 293.616211,6.313353 294.626007,7.813468 
	C297.458801,12.021717 297.330200,18.296015 303.259155,20.444613 
	C303.901123,20.677254 304.266663,22.142065 304.449463,23.094984 
	C305.497437,28.558222 308.562439,32.172024 313.600006,34.633377 
	C315.373596,35.499969 317.311890,37.995258 317.433044,39.860058 
	C317.669373,43.497936 319.100281,44.052250 322.174866,43.536781 
	C324.824188,43.092613 326.949127,43.751354 326.549530,47.145180 
	C325.724701,54.150597 327.163849,56.550709 333.473511,60.040096 
	C334.996277,60.882210 335.992035,62.860638 336.967346,64.475273 
	C340.010437,69.513176 341.799866,75.543625 348.000000,78.000000 
	C348.000000,93.354225 348.000000,108.708458 347.584991,124.532547 
	C346.337463,125.024231 345.494293,124.968246 344.674164,125.080574 
	C339.584381,125.777725 339.147705,126.962181 341.794861,131.350983 
	C342.399353,132.353195 342.450623,134.759232 341.785309,135.281143 
	C337.874237,138.349274 333.680115,141.057495 329.561951,143.858475 
	C329.320923,144.022415 328.906097,143.988586 328.579620,143.960342 
	C325.062683,143.655975 323.326294,145.660065 321.594818,148.475052 
	C319.494873,151.889069 316.899475,155.281708 311.931519,151.969833 
	C311.195099,151.478912 309.290894,152.348160 308.135376,152.973358 
	C306.576599,153.816742 305.118011,154.920609 303.796021,156.111984 
	C300.320740,159.243973 295.475067,161.886230 293.872589,165.821838 
	C291.517517,171.605774 286.986206,173.459503 282.455658,176.068649 
	C280.352203,177.279999 277.924011,178.564621 276.665863,180.485870 
	C273.039612,186.023270 269.896393,191.880676 266.673004,197.673325 
	C266.289795,198.362015 266.669434,199.439774 266.547302,200.316544 
	C266.286102,202.191345 266.411743,204.350128 265.491516,205.847031 
	C264.234161,207.892212 261.217072,209.157104 260.609497,211.239426 
	C259.210419,216.034164 258.603210,221.098434 258.072296,226.095581 
	C257.665466,229.924835 257.824249,233.751770 261.410675,236.539459 
	C262.124329,237.094177 262.455841,239.103561 262.033081,240.006577 
	C258.277954,248.027649 260.073151,255.400711 264.264618,262.583435 
	C266.392029,266.229065 269.695801,269.298584 268.747284,274.322144 
	C268.501099,275.626099 270.108093,277.890656 271.472473,278.772858 
	C275.487732,281.369171 276.488251,284.671631 275.000000,289.000000 
	C266.979095,289.000000 258.958191,289.000000 250.387970,288.640869 
	C249.216110,286.562744 248.979172,284.533783 247.895432,283.185486 
	C245.143311,279.761597 244.661682,276.651489 247.112442,272.742249 
	C247.797089,271.650146 246.554733,269.186096 245.911026,267.457733 
	C244.372299,263.326233 241.780518,259.368042 241.253265,255.135651 
	C240.631775,250.146790 242.058899,244.944107 238.547562,240.399429 
	C237.880981,239.536667 238.100998,237.803116 238.266800,236.517075 
	C238.815689,232.259293 239.505951,228.019089 240.181915,223.778519 
	C240.780411,220.023880 241.247253,216.234756 242.105865,212.538376 
	C243.259460,207.571945 244.764969,202.688248 246.062271,197.754013 
	C247.583633,191.967484 248.768387,186.129364 254.022125,182.114212 
	C255.894424,180.683350 256.970947,178.191757 258.352814,176.145248 
	C259.361938,174.650787 259.997406,172.788086 261.279327,171.613083 
	C268.176758,165.290817 272.633179,157.087814 278.396118,149.904160 
	C282.192413,145.171997 285.867340,139.815521 290.829285,136.704834 
	C295.140503,134.002106 297.508392,130.704941 299.832428,126.665794 
	C302.447113,122.121490 304.035553,116.389175 311.152283,116.264030 
	C312.204132,116.245537 314.568481,111.647530 313.985443,110.822861 
	C310.401001,105.753143 312.294739,102.115517 315.552277,99.301819 
	C315.552277,96.607674 314.795807,94.156906 315.689941,92.771385 
	C318.731537,88.058304 317.144867,84.542313 314.278015,80.509766 
	C313.015198,78.733437 312.656067,75.502754 313.290924,73.345650 
	C315.006165,67.517586 313.841095,64.084053 308.823822,60.258297 
	C306.306580,58.338844 303.991150,55.628006 302.674835,52.772442 
	C300.119720,47.229534 298.022247,41.771362 292.697449,37.868202 
	C290.506683,36.262344 287.384979,32.992790 290.228180,28.882811 
	C290.729492,28.158171 290.264618,26.126852 289.550262,25.300140 
	C283.642212,18.462978 277.522552,11.808863 271.599518,4.984265 
	C270.713013,3.962826 270.515991,2.343001 270.000000,1.000000 
z"/>
<path fill="#31A7AD" opacity="1.000000" stroke="none" 
	d="
M269.531342,1.000000 
	C270.515991,2.343001 270.713013,3.962826 271.599518,4.984265 
	C277.522552,11.808863 283.642212,18.462978 289.550262,25.300140 
	C290.264618,26.126852 290.729492,28.158171 290.228180,28.882811 
	C287.384979,32.992790 290.506683,36.262344 292.697449,37.868202 
	C298.022247,41.771362 300.119720,47.229534 302.674835,52.772442 
	C303.991150,55.628006 306.306580,58.338844 308.823822,60.258297 
	C313.841095,64.084053 315.006165,67.517586 313.290924,73.345650 
	C312.656067,75.502754 313.015198,78.733437 314.278015,80.509766 
	C317.144867,84.542313 318.731537,88.058304 315.689941,92.771385 
	C314.795807,94.156906 315.552277,96.607674 315.552277,99.301819 
	C312.294739,102.115517 310.401001,105.753143 313.985443,110.822861 
	C314.568481,111.647530 312.204132,116.245537 311.152283,116.264030 
	C304.035553,116.389175 302.447113,122.121490 299.832428,126.665794 
	C297.508392,130.704941 295.140503,134.002106 290.829285,136.704834 
	C285.867340,139.815521 282.192413,145.171997 278.396118,149.904160 
	C272.633179,157.087814 268.176758,165.290817 261.279327,171.613083 
	C259.997406,172.788086 259.361938,174.650787 258.352814,176.145248 
	C256.970947,178.191757 255.894424,180.683350 254.022125,182.114212 
	C248.768387,186.129364 247.583633,191.967484 246.062271,197.754013 
	C244.764969,202.688248 243.259460,207.571945 242.105865,212.538376 
	C241.247253,216.234756 240.780411,220.023880 240.181915,223.778519 
	C239.505951,228.019089 238.815689,232.259293 238.266800,236.517075 
	C238.100998,237.803116 237.880981,239.536667 238.547562,240.399429 
	C242.058899,244.944107 240.631775,250.146790 241.253265,255.135651 
	C241.780518,259.368042 244.372299,263.326233 245.911026,267.457733 
	C246.554733,269.186096 247.797089,271.650146 247.112442,272.742249 
	C244.661682,276.651489 245.143311,279.761597 247.895432,283.185486 
	C248.979172,284.533783 249.216110,286.562744 249.919327,288.640869 
	C240.645767,289.000000 231.291550,289.000000 221.554535,288.616516 
	C221.417816,286.926025 222.097229,285.524048 221.835175,284.328369 
	C220.685318,279.081787 216.842880,274.013672 221.135330,268.529480 
	C217.400208,262.286835 222.636719,254.019318 216.577026,248.244171 
	C216.158783,247.845581 216.196594,246.531525 216.508911,245.874527 
	C218.476089,241.736282 220.760452,237.740280 222.559753,233.534592 
	C223.380005,231.617355 224.009903,229.170868 223.559158,227.236313 
	C221.748383,219.464401 221.204086,212.173996 227.578094,205.944504 
	C228.448456,205.093887 228.908340,203.073181 228.573059,201.868423 
	C227.096542,196.562912 229.531479,192.506012 232.160248,188.356857 
	C233.291519,186.571289 234.253952,184.604477 234.891464,182.592743 
	C238.256485,171.973953 243.097794,162.257797 250.492233,153.749588 
	C254.278412,149.393127 260.321533,146.636673 261.183136,140.038513 
	C261.805969,135.268906 264.128113,131.807495 268.150726,129.171234 
	C270.709595,127.494255 274.661194,125.443619 274.904694,123.222473 
	C275.521484,117.596413 277.415588,113.102791 281.207794,109.094124 
	C281.880341,108.383209 281.807343,106.890434 281.923920,105.742989 
	C282.503632,100.037010 282.942017,94.315483 283.596039,88.618492 
	C285.035156,76.083107 285.641144,64.112389 276.565063,53.258392 
	C271.254669,46.907768 268.092163,38.752560 264.042206,31.365953 
	C263.456207,30.297199 263.312286,28.986057 262.957275,27.764696 
	C261.648102,28.250689 260.654175,28.619665 259.660217,28.988640 
	C259.845184,28.543716 260.030151,28.098795 260.215088,27.653873 
	C258.005280,26.025316 255.789673,24.404537 253.588791,22.764009 
	C252.811081,22.184320 251.698410,21.712152 251.368362,20.926392 
	C247.894440,12.655995 240.669266,8.593514 233.422226,4.449198 
	C232.318329,3.817923 231.792953,2.175004 231.000000,0.999998 
	C243.687561,1.000000 256.375122,1.000000 269.531342,1.000000 
z"/>
<path fill="#2DA5A1" opacity="1.000000" stroke="none" 
	d="
M230.531342,0.999998 
	C231.792953,2.175004 232.318329,3.817923 233.422226,4.449198 
	C240.669266,8.593514 247.894440,12.655995 251.368362,20.926392 
	C251.698410,21.712152 252.811081,22.184320 253.588791,22.764009 
	C255.789673,24.404537 258.005280,26.025316 260.215088,27.653873 
	C260.030151,28.098795 259.845184,28.543716 259.660217,28.988640 
	C260.654175,28.619665 261.648102,28.250689 262.957275,27.764696 
	C263.312286,28.986057 263.456207,30.297199 264.042206,31.365953 
	C268.092163,38.752560 271.254669,46.907768 276.565063,53.258392 
	C285.641144,64.112389 285.035156,76.083107 283.596039,88.618492 
	C282.942017,94.315483 282.503632,100.037010 281.923920,105.742989 
	C281.807343,106.890434 281.880341,108.383209 281.207794,109.094124 
	C277.415588,113.102791 275.521484,117.596413 274.904694,123.222473 
	C274.661194,125.443619 270.709595,127.494255 268.150726,129.171234 
	C264.128113,131.807495 261.805969,135.268906 261.183136,140.038513 
	C260.321533,146.636673 254.278412,149.393127 250.492233,153.749588 
	C243.097794,162.257797 238.256485,171.973953 234.891464,182.592743 
	C234.253952,184.604477 233.291519,186.571289 232.160248,188.356857 
	C229.531479,192.506012 227.096542,196.562912 228.573059,201.868423 
	C228.908340,203.073181 228.448456,205.093887 227.578094,205.944504 
	C221.204086,212.173996 221.748383,219.464401 223.559158,227.236313 
	C224.009903,229.170868 223.380005,231.617355 222.559753,233.534592 
	C220.760452,237.740280 218.476089,241.736282 216.508911,245.874527 
	C216.196594,246.531525 216.158783,247.845581 216.577026,248.244171 
	C222.636719,254.019318 217.400208,262.286835 221.135330,268.529480 
	C216.842880,274.013672 220.685318,279.081787 221.835175,284.328369 
	C222.097229,285.524048 221.417816,286.926025 221.085876,288.616516 
	C211.312439,289.000000 201.624878,289.000000 191.506378,288.614868 
	C192.476730,284.902130 193.878784,281.574860 195.278824,278.246735 
	C195.720413,277.197021 196.574661,276.126434 196.528976,275.096924 
	C196.160690,266.797821 199.438049,258.940887 199.028793,250.524124 
	C198.766937,245.139450 202.212830,239.504257 201.668396,234.221298 
	C200.982605,227.566391 202.631958,221.770462 204.725174,215.940811 
	C207.898682,207.102600 206.006653,196.646179 213.285797,189.131836 
	C213.463303,188.948593 213.294464,188.470200 213.390793,188.161850 
	C214.544556,184.468735 215.320709,180.591690 216.974426,177.135361 
	C219.833344,171.160141 223.195953,165.422424 226.426147,159.629074 
	C233.009323,147.822174 240.202774,136.309723 245.993469,124.128632 
	C248.421295,119.021591 249.636810,113.362259 253.631088,109.017799 
	C253.915176,108.708817 253.785522,108.046463 253.920029,107.568634 
	C254.860580,104.227257 256.038483,100.935440 256.725372,97.543716 
	C257.934296,91.573997 260.081512,85.427277 259.526825,79.573479 
	C259.001221,74.026802 259.711517,67.006310 253.080414,63.413799 
	C252.476669,63.086700 252.096481,61.509911 252.296951,60.678471 
	C253.227753,56.817795 250.536682,55.418785 248.054474,53.648674 
	C246.078705,52.239731 243.382629,50.782047 242.731735,48.783932 
	C241.142761,43.906067 239.103088,40.074535 233.834274,38.378632 
	C232.723679,38.021160 232.094162,35.734741 231.520264,34.231289 
	C230.170670,30.695654 228.153473,28.097223 223.823303,27.727425 
	C222.756012,25.970657 221.868973,24.486694 220.945450,22.642086 
	C218.170715,20.113871 215.463074,17.906271 212.688614,15.786080 
	C203.607178,8.846159 193.686539,3.889880 181.748474,2.950591 
	C180.615005,2.270671 179.807495,1.635336 179.000000,1.000000 
	C196.020889,1.000000 213.041794,1.000000 230.531342,0.999998 
z"/>
<path fill="#37AABE" opacity="1.000000" stroke="none" 
	d="
M348.000000,171.000000 
	C348.000000,210.223419 348.000000,249.446838 348.000000,289.000000 
	C335.314331,289.000000 322.625824,289.000000 309.464539,288.604065 
	C309.441010,283.545319 306.113922,281.900940 302.691498,280.348907 
	C298.918427,278.637909 295.493805,276.791809 299.457336,271.924255 
	C297.583527,271.553864 295.404236,271.743591 294.909210,270.920441 
	C292.447693,266.827332 289.114166,262.613922 288.618530,258.161194 
	C288.103790,253.537048 286.361328,252.461914 282.577576,251.454483 
	C277.456482,250.090942 276.485748,247.141937 279.306366,242.606339 
	C281.160858,239.624252 281.462952,237.164368 278.435028,234.795792 
	C275.964630,232.863358 275.923523,230.539948 277.178070,227.690491 
	C279.281403,222.913162 277.297668,216.684692 282.453979,212.858200 
	C282.936981,212.499786 281.992981,210.570343 282.279602,209.526276 
	C282.999847,206.902695 283.271912,203.320206 285.092316,201.976715 
	C293.774689,195.569031 300.376434,186.184219 311.560120,183.212372 
	C312.992401,182.831787 313.793823,180.456909 315.154755,179.328140 
	C316.702484,178.044434 318.535034,176.238342 320.270752,176.208084 
	C325.644501,176.114502 329.705963,174.697113 330.785461,168.719757 
	C338.236206,173.951324 340.000183,174.160233 348.000000,171.000000 
M334.437195,180.964966 
	C335.323151,181.211670 336.209137,181.458374 337.095093,181.705078 
	C336.913239,180.734665 336.731415,179.764267 336.549561,178.793854 
	C335.807129,179.316910 335.064728,179.839966 334.437195,180.964966 
z"/>
<path fill="#23A186" opacity="1.000000" stroke="none" 
	d="
M1.000002,251.000000 
	C1.000000,245.977905 1.000000,240.955811 1.372875,235.550598 
	C5.135583,236.756012 8.540323,238.313782 11.909197,239.945618 
	C13.695458,240.810852 15.414927,241.813232 17.172535,242.738541 
	C20.044468,244.250458 22.895895,245.804977 25.807856,247.235962 
	C27.849724,248.239349 29.906664,249.335617 32.083488,249.913208 
	C35.770260,250.891388 39.537785,251.610336 43.305855,252.227737 
	C51.452488,253.562561 59.587887,255.096161 67.791161,255.913116 
	C74.142784,256.545654 80.717270,255.473602 86.955612,256.542694 
	C91.999176,257.407074 96.044182,258.483154 98.487389,252.668854 
	C98.792770,251.942108 100.036385,251.377686 100.942917,251.175186 
	C105.119377,250.242249 107.876625,244.707733 113.240105,247.381317 
	C113.617729,247.569565 115.092285,246.435501 115.452652,245.641968 
	C118.486786,238.960785 125.935226,234.828827 126.378265,226.599136 
	C126.433479,225.573654 127.764389,224.326263 128.813599,223.700424 
	C131.724777,221.964005 133.145767,219.778854 132.436401,216.264969 
	C132.239639,215.290344 132.814911,214.047897 133.307281,213.064072 
	C136.830887,206.023392 140.483871,199.047043 143.966766,191.986618 
	C145.354263,189.173965 144.679947,185.170654 148.941452,184.045731 
	C149.474609,183.904984 149.748383,182.340286 149.933731,181.394470 
	C151.188919,174.989304 151.342407,168.291916 156.943604,163.395905 
	C158.342148,162.173431 158.306091,159.160934 158.649963,156.928116 
	C158.920761,155.169617 158.242844,153.129410 158.883377,151.586792 
	C161.746262,144.691895 160.366592,136.149292 166.941162,130.679123 
	C167.348007,130.340607 167.524216,129.388458 167.404205,128.804779 
	C166.082336,122.376160 168.762970,117.482330 172.913803,113.915604 
	C172.502350,111.152916 171.714874,108.956345 171.959671,106.881561 
	C172.511414,102.205170 173.854492,97.617668 174.331833,92.938522 
	C174.658875,89.732635 174.281738,86.401215 173.794067,83.190521 
	C173.578384,81.770340 172.517776,80.311317 171.474808,79.219475 
	C169.435959,77.085030 166.706924,75.502762 165.037277,73.144211 
	C161.115204,67.603844 157.648682,61.740978 153.906998,55.655647 
	C150.364120,50.731693 143.654800,52.787579 140.019302,48.550816 
	C139.907104,48.420067 139.358261,48.753151 139.073242,48.668102 
	C135.038605,47.464165 131.014435,46.225254 127.389313,44.954201 
	C135.003845,43.033573 143.247253,44.317211 149.439728,38.000706 
	C156.025467,39.735191 162.551254,40.718494 168.217728,43.470886 
	C171.918610,45.268532 176.008240,48.058102 176.343750,53.749981 
	C176.556351,57.356731 177.708542,61.872337 180.147263,64.158165 
	C183.826691,67.606880 185.627563,71.675819 186.491943,76.022690 
	C187.843521,82.819710 188.145828,89.822960 188.965134,96.730255 
	C189.128677,98.109154 189.500458,99.493301 189.988373,100.795547 
	C190.497559,102.154625 191.673340,103.364525 191.850357,104.731262 
	C193.059952,114.070587 187.310303,121.964691 186.174255,130.854187 
	C186.055923,131.780136 184.801514,132.778885 183.838699,133.338943 
	C180.677750,135.177612 180.134872,137.972549 179.888489,141.360474 
	C179.603973,145.272812 179.410507,149.720612 177.439621,152.836731 
	C175.357315,156.129013 173.159515,158.580261 175.103790,162.615570 
	C175.434250,163.301453 175.145813,164.941208 174.599625,165.290787 
	C169.943069,168.271042 169.215866,172.904022 168.636902,177.838348 
	C168.147293,182.011093 167.562714,186.306412 166.099380,190.201569 
	C163.551300,196.984100 161.242584,204.194427 157.051254,209.920959 
	C153.311127,215.031021 155.721954,222.891998 148.917435,226.188416 
	C148.635452,226.325043 149.070450,227.724609 148.972046,228.510849 
	C148.841263,229.555939 148.608170,230.610229 148.251831,231.600388 
	C147.562225,233.516571 146.159851,235.372345 146.101013,237.285385 
	C145.848953,245.479156 140.258331,250.772400 135.179550,255.617279 
	C130.017609,260.541504 123.147537,263.665680 117.061996,267.634094 
	C112.044151,270.906250 107.132256,274.159088 100.568993,272.324585 
	C98.760338,271.819061 96.620819,272.360504 94.652153,272.586975 
	C83.949036,273.818268 73.261093,275.383820 62.570221,272.415558 
	C50.314201,269.012756 37.984234,265.864014 25.794548,262.240967 
	C21.160774,260.863708 16.795839,258.544678 12.367222,256.525787 
	C8.534894,254.778732 4.785855,252.848984 1.000002,251.000000 
z"/>
<path fill="#27A290" opacity="1.000000" stroke="none" 
	d="
M149.000000,289.000000 
	C117.645775,289.000000 86.291542,289.000000 54.324848,288.678833 
	C47.106026,285.902496 40.558525,283.271820 33.879951,281.031952 
	C23.015278,277.388184 10.669841,278.592438 1.000000,271.000000 
	C1.000000,268.299988 1.000000,265.599976 1.420519,262.451233 
	C4.590939,262.549622 7.565429,262.608459 10.042892,263.747925 
	C14.854356,265.960907 19.452160,268.670349 24.017941,271.377411 
	C29.622841,274.700592 35.492138,276.309174 42.071072,275.595337 
	C43.812149,275.406433 45.725731,276.438354 47.507507,277.060333 
	C53.783756,279.251434 60.023846,281.547272 66.319374,283.680206 
	C66.964615,283.898773 67.882477,283.132233 68.686501,283.094818 
	C71.677773,282.955597 74.678993,282.801453 77.667145,282.910004 
	C79.454559,282.974976 81.216003,283.730927 83.004196,283.803162 
	C87.190605,283.972321 91.400948,284.144196 95.572678,283.871857 
	C98.338272,283.691254 101.051788,282.734619 103.792900,282.145264 
	C104.722023,281.945496 105.665588,281.658264 106.600235,281.666718 
	C109.845039,281.696045 113.236183,282.490143 116.301666,281.797791 
	C122.292114,280.444977 128.692398,279.933167 132.526871,273.480927 
	C134.093277,270.845123 138.025696,269.660858 140.777451,267.671997 
	C143.858658,265.445038 147.053131,263.281921 149.692673,260.594421 
	C150.466003,259.806976 149.243225,257.293182 149.450836,255.635162 
	C149.593491,254.495865 150.636200,253.473999 151.257767,252.388855 
	C152.200958,250.742203 153.422058,249.184616 154.013092,247.417892 
	C157.474579,237.070831 160.781067,226.671967 164.165039,216.298813 
	C164.367569,215.678009 164.889496,215.161407 165.092133,214.540588 
	C168.097763,205.332230 171.059250,196.109421 174.067291,186.901825 
	C174.987671,184.084579 175.805161,181.205765 177.035217,178.522705 
	C181.219055,169.396729 187.126633,160.987701 187.945984,150.494629 
	C188.098892,148.536240 189.705994,146.693619 190.632568,144.792969 
	C193.083252,139.766022 195.604553,134.771591 197.951706,129.696671 
	C199.746307,125.816422 201.416656,121.871101 202.954453,117.882317 
	C203.993958,115.185982 204.305191,112.144211 205.666580,109.652771 
	C207.429642,106.426201 204.576309,102.722534 205.824951,100.765038 
	C209.151474,95.550079 210.530823,90.227516 211.222656,84.197212 
	C211.585083,81.038025 213.366455,78.413895 210.066513,75.852943 
	C209.521255,75.429787 209.650620,73.644783 209.984680,72.665291 
	C211.537216,68.113091 211.890488,63.942440 207.729248,60.393604 
	C206.814545,59.613537 206.235275,58.131866 206.024643,56.884914 
	C204.730194,49.221680 196.174744,47.493263 193.214386,41.168190 
	C192.962662,40.630325 191.075256,40.737606 189.950470,40.752464 
	C187.147964,40.789490 185.733597,39.762955 185.487473,36.699352 
	C185.380615,35.369190 183.884048,34.006187 182.752304,32.941185 
	C181.475906,31.740046 179.962601,30.750114 178.441010,29.858271 
	C175.009323,27.846878 171.509003,25.952566 168.029999,23.626114 
	C168.440323,21.685129 168.857285,20.128643 169.353058,18.277988 
	C177.324722,24.079473 177.620560,24.085634 180.406372,19.048676 
	C185.962570,21.384748 191.142380,23.714254 196.355347,25.967051 
	C198.866318,27.052174 201.439743,27.992708 204.145615,29.321163 
	C206.299362,36.975819 210.094284,43.048679 216.541229,47.309189 
	C217.055161,47.648827 217.467072,48.318714 217.673416,48.921703 
	C221.148209,59.076199 228.225510,68.233902 226.187668,79.947060 
	C225.999313,81.029762 226.700195,82.848175 227.581558,83.437408 
	C231.853653,86.293541 230.062683,89.064842 228.132950,92.322487 
	C226.682037,94.771805 225.598373,97.577812 224.996140,100.364418 
	C223.248856,108.449242 220.595230,116.071983 216.047195,123.081253 
	C213.495880,127.013245 211.416260,131.307266 209.572372,135.629410 
	C206.682724,142.402878 204.406708,149.443115 201.399475,156.159302 
	C199.967300,159.357880 197.351639,162.009491 195.471588,165.032913 
	C194.719162,166.242935 194.457733,167.773666 194.052673,169.181396 
	C192.918137,173.124237 191.936905,177.114822 190.686676,181.019806 
	C189.241226,185.534485 186.677170,189.886108 186.206940,194.473358 
	C185.455109,201.807922 185.321136,209.009338 179.013962,214.218735 
	C178.475235,214.663712 177.992264,215.911911 178.233597,216.451309 
	C180.536636,221.598862 177.371613,225.243713 175.646423,229.726288 
	C172.754501,237.240402 172.296783,245.513107 169.135101,253.222000 
	C166.492096,259.666229 166.319977,267.098877 164.723694,274.017670 
	C164.387299,275.475708 162.812576,277.414581 161.469009,277.742981 
	C155.172852,279.281769 151.839188,283.799988 149.000000,289.000000 
z"/>
<path fill="#1C9E74" opacity="1.000000" stroke="none" 
	d="
M0.999997,204.000000 
	C1.000000,200.637894 1.000000,197.275803 1.354833,193.417847 
	C3.911140,191.017059 6.144374,189.147324 8.304701,187.196838 
	C10.269384,185.423004 11.975202,184.607773 13.035654,188.388885 
	C13.425730,190.046417 13.368818,191.982559 14.197635,192.500015 
	C19.567364,195.852402 21.744705,201.961288 27.412310,205.683212 
	C34.893562,210.596176 41.582260,208.676102 48.826504,208.566345 
	C50.755672,208.537109 52.764229,209.058014 54.618103,209.679214 
	C59.126247,211.189804 63.536674,212.994736 68.057487,214.462341 
	C68.882935,214.730301 70.044373,213.963257 69.719398,214.056671 
	C69.719398,211.137222 68.997284,207.804489 69.852127,207.333405 
	C72.636375,205.799088 75.589600,202.811066 79.358215,205.663757 
	C80.043388,206.182404 81.269257,206.369629 82.143074,206.195541 
	C89.020943,204.825439 98.582695,191.643234 98.826912,184.486069 
	C99.152733,174.937592 102.340591,166.441650 110.299202,160.349396 
	C110.902855,159.887299 111.747742,158.750992 111.566696,158.401672 
	C108.887161,153.231537 115.902664,147.428467 110.501450,142.324173 
	C109.992531,141.843231 110.862808,139.023087 111.840179,138.010269 
	C115.071831,134.661453 114.592583,131.093842 111.385483,128.968765 
	C105.444656,125.032280 107.262688,120.884048 110.428177,116.941902 
	C113.786896,112.759117 111.142853,110.486832 108.070175,109.330101 
	C102.905815,107.385910 97.383003,106.393867 92.031563,104.631523 
	C92.308670,103.494629 92.327789,102.433846 92.858002,102.005150 
	C99.027328,97.016861 102.533958,90.230370 105.246468,84.645630 
	C108.486641,83.122787 110.750908,82.058617 113.405914,80.981934 
	C117.411530,80.425728 121.052017,79.493309 123.470909,83.690125 
	C123.808830,84.276421 125.781845,83.920303 127.283440,84.170624 
	C128.839615,84.259712 130.122009,84.036125 131.377609,84.139137 
	C132.543182,84.234764 134.552460,84.457321 134.691589,85.004837 
	C135.796082,89.351166 137.025406,93.759132 137.295288,98.204102 
	C137.803284,106.571739 132.368698,114.764420 136.391876,123.322166 
	C136.580353,123.723083 136.500427,124.315239 136.390152,124.781609 
	C135.165985,129.958527 133.879242,135.120789 132.675339,140.302338 
	C131.813324,144.012360 130.687363,147.688858 133.246170,151.344421 
	C133.814240,152.155975 133.457260,153.925385 133.027527,155.065872 
	C131.819824,158.271103 130.601074,161.520477 128.911346,164.481155 
	C127.451012,167.039856 125.616142,169.534531 123.439491,171.493912 
	C121.112770,173.588409 120.706390,175.343552 122.455185,177.902603 
	C125.137352,181.827469 124.803711,185.717117 120.986046,188.009277 
	C117.576378,190.056488 115.181595,191.758926 117.394539,196.144714 
	C117.699837,196.749771 116.393982,198.392502 115.563599,199.310120 
	C109.260941,206.274857 102.611824,212.950531 96.676865,220.211731 
	C94.243019,223.189484 93.130524,227.283020 88.925911,228.532974 
	C85.601723,229.521179 82.219421,230.313904 78.416656,231.310379 
	C76.738937,229.086960 74.553757,227.519791 71.525627,231.391571 
	C70.905693,232.184204 68.402321,231.749313 66.829803,231.494110 
	C64.443657,231.106873 61.614895,229.228058 59.841022,229.993057 
	C50.503132,234.019989 41.120785,231.803391 31.860279,230.619949 
	C26.899006,229.985931 21.876238,228.180725 19.304684,222.778381 
	C18.400726,220.879333 16.668943,219.100159 14.875937,217.952332 
	C10.346523,215.052734 5.795690,212.451309 4.686796,206.430984 
	C4.502113,205.428314 2.280400,204.800858 0.999997,204.000000 
z"/>
<path fill="#25A28A" opacity="1.000000" stroke="none" 
	d="
M168.036621,24.010614 
	C171.509003,25.952566 175.009323,27.846878 178.441010,29.858271 
	C179.962601,30.750114 181.475906,31.740046 182.752304,32.941185 
	C183.884048,34.006187 185.380615,35.369190 185.487473,36.699352 
	C185.733597,39.762955 187.147964,40.789490 189.950470,40.752464 
	C191.075256,40.737606 192.962662,40.630325 193.214386,41.168190 
	C196.174744,47.493263 204.730194,49.221680 206.024643,56.884914 
	C206.235275,58.131866 206.814545,59.613537 207.729248,60.393604 
	C211.890488,63.942440 211.537216,68.113091 209.984680,72.665291 
	C209.650620,73.644783 209.521255,75.429787 210.066513,75.852943 
	C213.366455,78.413895 211.585083,81.038025 211.222656,84.197212 
	C210.530823,90.227516 209.151474,95.550079 205.824951,100.765038 
	C204.576309,102.722534 207.429642,106.426201 205.666580,109.652771 
	C204.305191,112.144211 203.993958,115.185982 202.954453,117.882317 
	C201.416656,121.871101 199.746307,125.816422 197.951706,129.696671 
	C195.604553,134.771591 193.083252,139.766022 190.632568,144.792969 
	C189.705994,146.693619 188.098892,148.536240 187.945984,150.494629 
	C187.126633,160.987701 181.219055,169.396729 177.035217,178.522705 
	C175.805161,181.205765 174.987671,184.084579 174.067291,186.901825 
	C171.059250,196.109421 168.097763,205.332230 165.092133,214.540588 
	C164.889496,215.161407 164.367569,215.678009 164.165039,216.298813 
	C160.781067,226.671967 157.474579,237.070831 154.013092,247.417892 
	C153.422058,249.184616 152.200958,250.742203 151.257767,252.388855 
	C150.636200,253.473999 149.593491,254.495865 149.450836,255.635162 
	C149.243225,257.293182 150.466003,259.806976 149.692673,260.594421 
	C147.053131,263.281921 143.858658,265.445038 140.777451,267.671997 
	C138.025696,269.660858 134.093277,270.845123 132.526871,273.480927 
	C128.692398,279.933167 122.292114,280.444977 116.301666,281.797791 
	C113.236183,282.490143 109.845039,281.696045 106.600235,281.666718 
	C105.665588,281.658264 104.722023,281.945496 103.792900,282.145264 
	C101.051788,282.734619 98.338272,283.691254 95.572678,283.871857 
	C91.400948,284.144196 87.190605,283.972321 83.004196,283.803162 
	C81.216003,283.730927 79.454559,282.974976 77.667145,282.910004 
	C74.678993,282.801453 71.677773,282.955597 68.686501,283.094818 
	C67.882477,283.132233 66.964615,283.898773 66.319374,283.680206 
	C60.023846,281.547272 53.783756,279.251434 47.507507,277.060333 
	C45.725731,276.438354 43.812149,275.406433 42.071072,275.595337 
	C35.492138,276.309174 29.622841,274.700592 24.017941,271.377411 
	C19.452160,268.670349 14.854356,265.960907 10.042892,263.747925 
	C7.565429,262.608459 4.590939,262.549622 1.420519,262.001221 
	C1.000000,258.638702 1.000000,255.277420 1.000002,251.458069 
	C4.785855,252.848984 8.534894,254.778732 12.367222,256.525787 
	C16.795839,258.544678 21.160774,260.863708 25.794548,262.240967 
	C37.984234,265.864014 50.314201,269.012756 62.570221,272.415558 
	C73.261093,275.383820 83.949036,273.818268 94.652153,272.586975 
	C96.620819,272.360504 98.760338,271.819061 100.568993,272.324585 
	C107.132256,274.159088 112.044151,270.906250 117.061996,267.634094 
	C123.147537,263.665680 130.017609,260.541504 135.179550,255.617279 
	C140.258331,250.772400 145.848953,245.479156 146.101013,237.285385 
	C146.159851,235.372345 147.562225,233.516571 148.251831,231.600388 
	C148.608170,230.610229 148.841263,229.555939 148.972046,228.510849 
	C149.070450,227.724609 148.635452,226.325043 148.917435,226.188416 
	C155.721954,222.891998 153.311127,215.031021 157.051254,209.920959 
	C161.242584,204.194427 163.551300,196.984100 166.099380,190.201569 
	C167.562714,186.306412 168.147293,182.011093 168.636902,177.838348 
	C169.215866,172.904022 169.943069,168.271042 174.599625,165.290787 
	C175.145813,164.941208 175.434250,163.301453 175.103790,162.615570 
	C173.159515,158.580261 175.357315,156.129013 177.439621,152.836731 
	C179.410507,149.720612 179.603973,145.272812 179.888489,141.360474 
	C180.134872,137.972549 180.677750,135.177612 183.838699,133.338943 
	C184.801514,132.778885 186.055923,131.780136 186.174255,130.854187 
	C187.310303,121.964691 193.059952,114.070587 191.850357,104.731262 
	C191.673340,103.364525 190.497559,102.154625 189.988373,100.795547 
	C189.500458,99.493301 189.128677,98.109154 188.965134,96.730255 
	C188.145828,89.822960 187.843521,82.819710 186.491943,76.022690 
	C185.627563,71.675819 183.826691,67.606880 180.147263,64.158165 
	C177.708542,61.872337 176.556351,57.356731 176.343750,53.749981 
	C176.008240,48.058102 171.918610,45.268532 168.217728,43.470886 
	C162.551254,40.718494 156.025467,39.735191 149.428680,37.590958 
	C149.217651,33.282452 147.170898,31.929764 143.511322,31.957880 
	C141.307938,31.974806 139.100632,31.484398 136.895096,31.221977 
	C146.624344,23.936617 157.551941,25.107264 168.036621,24.010614 
z"/>
<path fill="#28A274" opacity="1.000000" stroke="none" 
	d="
M12.998282,188.011414 
	C11.975202,184.607773 10.269384,185.423004 8.304701,187.196838 
	C6.144374,189.147324 3.911140,191.017059 1.354833,192.960999 
	C1.000000,176.645767 1.000000,160.291550 1.376756,143.454697 
	C6.153208,140.619385 11.042810,138.867096 14.836412,135.771606 
	C20.362537,131.262451 25.110407,125.797081 30.170753,120.720131 
	C36.333012,114.537682 42.282616,108.126442 48.692726,102.213676 
	C53.082535,98.164452 58.281170,95.003296 62.790726,91.069679 
	C67.727295,86.763596 72.158371,81.880714 77.057037,77.527481 
	C80.248360,74.691490 83.821983,72.267891 87.330002,69.810379 
	C92.174538,66.416580 94.779045,59.921883 101.754578,59.415359 
	C102.365509,59.370995 102.888832,58.297749 103.476761,57.727036 
	C105.592171,55.673565 108.041641,53.870770 109.773819,51.534943 
	C113.664886,46.287846 122.276794,51.497448 125.204803,44.372917 
	C125.217789,44.341305 126.368393,44.777229 126.987717,44.994804 
	C131.014435,46.225254 135.038605,47.464165 139.073242,48.668102 
	C139.358261,48.753151 139.907104,48.420067 140.019302,48.550816 
	C143.654800,52.787579 150.364120,50.731693 153.500351,55.610313 
	C149.914520,55.855801 146.420563,55.012070 143.415283,55.873409 
	C133.114380,58.825737 122.957611,62.296398 112.813911,65.768196 
	C110.873672,66.432266 107.938385,67.811707 107.740242,69.188873 
	C107.327866,72.054993 106.168465,75.966370 110.898491,77.411781 
	C111.877556,77.710976 112.323517,79.754730 113.015175,80.994438 
	C110.750908,82.058617 108.486641,83.122787 105.246468,84.645630 
	C102.533958,90.230370 99.027328,97.016861 92.858002,102.005150 
	C92.327789,102.433846 92.308670,103.494629 91.692413,104.731079 
	C90.224991,107.134300 89.117287,109.068230 87.706879,111.136505 
	C86.272377,112.182007 85.140572,113.093155 83.679352,114.113136 
	C78.180992,121.376465 73.875511,129.402634 64.791992,132.605408 
	C63.455685,137.655685 59.311234,140.186508 55.640213,143.302887 
	C52.946537,145.589615 50.964935,148.725540 48.721348,151.527313 
	C47.713123,152.786377 46.589661,154.045044 45.960178,155.495575 
	C44.802971,158.162155 44.618805,162.167709 40.662628,161.372253 
	C39.231598,161.084518 38.469639,157.469177 36.971485,154.525650 
	C35.043224,158.049973 33.025249,161.740677 31.004768,165.430008 
	C30.178301,166.939117 29.461571,168.524261 28.492857,169.936172 
	C26.509378,172.827087 23.946627,175.408279 22.432104,178.512100 
	C20.308365,182.864426 18.041512,186.716400 12.998282,188.011414 
z"/>
<path fill="#1E9F7A" opacity="1.000000" stroke="none" 
	d="
M0.999997,204.468582 
	C2.280400,204.800858 4.502113,205.428314 4.686796,206.430984 
	C5.795690,212.451309 10.346523,215.052734 14.875937,217.952332 
	C16.668943,219.100159 18.400726,220.879333 19.304684,222.778381 
	C21.876238,228.180725 26.899006,229.985931 31.860279,230.619949 
	C41.120785,231.803391 50.503132,234.019989 59.841022,229.993057 
	C61.614895,229.228058 64.443657,231.106873 66.829803,231.494110 
	C68.402321,231.749313 70.905693,232.184204 71.525627,231.391571 
	C74.553757,227.519791 76.738937,229.086960 78.416656,231.310379 
	C82.219421,230.313904 85.601723,229.521179 88.925911,228.532974 
	C93.130524,227.283020 94.243019,223.189484 96.676865,220.211731 
	C102.611824,212.950531 109.260941,206.274857 115.563599,199.310120 
	C116.393982,198.392502 117.699837,196.749771 117.394539,196.144714 
	C115.181595,191.758926 117.576378,190.056488 120.986046,188.009277 
	C124.803711,185.717117 125.137352,181.827469 122.455185,177.902603 
	C120.706390,175.343552 121.112770,173.588409 123.439491,171.493912 
	C125.616142,169.534531 127.451012,167.039856 128.911346,164.481155 
	C130.601074,161.520477 131.819824,158.271103 133.027527,155.065872 
	C133.457260,153.925385 133.814240,152.155975 133.246170,151.344421 
	C130.687363,147.688858 131.813324,144.012360 132.675339,140.302338 
	C133.879242,135.120789 135.165985,129.958527 136.390152,124.781609 
	C136.500427,124.315239 136.580353,123.723083 136.391876,123.322166 
	C132.368698,114.764420 137.803284,106.571739 137.295288,98.204102 
	C137.025406,93.759132 135.796082,89.351166 134.691589,85.004837 
	C134.552460,84.457321 132.543182,84.234764 131.377609,84.139137 
	C130.122009,84.036125 128.839615,84.259712 127.467201,83.875473 
	C129.272675,80.142906 130.695389,75.729424 135.697617,80.127182 
	C136.105209,80.485527 137.633896,80.355026 137.921585,79.945648 
	C142.309616,73.701447 148.779800,81.459450 153.545227,77.672180 
	C153.603073,77.626198 155.499313,79.136620 155.587585,80.015900 
	C155.982635,83.951088 160.525833,87.185547 157.573410,91.721672 
	C157.294830,92.149696 158.088623,93.199341 158.225082,93.987968 
	C158.656860,96.483307 159.386932,99.001915 159.319244,101.492981 
	C159.184341,106.458473 157.567856,111.603127 158.447571,116.322548 
	C159.608734,122.551720 158.166321,127.985939 154.697021,132.292587 
	C149.872009,138.282135 150.845291,144.957077 150.106628,151.573593 
	C149.834183,154.014053 149.214539,156.975037 147.626938,158.594330 
	C144.197266,162.092484 142.970322,165.872009 142.807465,170.664154 
	C142.718704,173.276108 140.661743,175.806351 139.564240,178.403763 
	C138.761871,180.302689 137.181488,182.428909 137.521713,184.141083 
	C138.275192,187.933075 135.976288,189.771347 134.251129,192.430527 
	C131.086472,197.308563 128.486694,202.606766 126.133446,207.942383 
	C123.771172,213.298447 122.255951,219.027985 119.895592,224.385040 
	C117.260689,230.365219 111.944588,233.684631 106.810242,237.515244 
	C99.654648,242.853867 93.589417,249.598831 83.384140,246.445801 
	C82.959793,246.314682 82.355499,246.470032 81.930740,246.682907 
	C78.487595,248.408463 75.589157,247.272217 72.588531,245.360016 
	C71.671814,244.775818 69.002853,245.013977 68.820312,245.503510 
	C67.019966,250.331329 63.230495,249.407562 59.623844,248.985260 
	C54.343113,248.366913 49.064407,247.712936 43.807335,246.924194 
	C42.558067,246.736755 40.914791,246.296417 40.274181,245.391113 
	C35.552341,238.718338 27.355095,240.391876 21.021862,237.705612 
	C17.521130,236.220764 13.864225,235.283875 11.729623,232.260452 
	C8.984700,228.372543 5.482837,226.532761 1.000000,226.000000 
	C1.000000,218.979050 1.000000,211.958099 0.999997,204.468582 
z"/>
<path fill="#35A9B8" opacity="1.000000" stroke="none" 
	d="
M348.000000,170.531342 
	C340.000183,174.160233 338.236206,173.951324 330.785461,168.719757 
	C329.705963,174.697113 325.644501,176.114502 320.270752,176.208084 
	C318.535034,176.238342 316.702484,178.044434 315.154755,179.328140 
	C313.793823,180.456909 312.992401,182.831787 311.560120,183.212372 
	C300.376434,186.184219 293.774689,195.569031 285.092316,201.976715 
	C283.271912,203.320206 282.999847,206.902695 282.279602,209.526276 
	C281.992981,210.570343 282.936981,212.499786 282.453979,212.858200 
	C277.297668,216.684692 279.281403,222.913162 277.178070,227.690491 
	C275.923523,230.539948 275.964630,232.863358 278.435028,234.795792 
	C281.462952,237.164368 281.160858,239.624252 279.306366,242.606339 
	C276.485748,247.141937 277.456482,250.090942 282.577576,251.454483 
	C286.361328,252.461914 288.103790,253.537048 288.618530,258.161194 
	C289.114166,262.613922 292.447693,266.827332 294.909210,270.920441 
	C295.404236,271.743591 297.583527,271.553864 299.457336,271.924255 
	C295.493805,276.791809 298.918427,278.637909 302.691498,280.348907 
	C306.113922,281.900940 309.441010,283.545319 308.995880,288.604065 
	C297.979095,289.000000 286.958221,289.000000 275.468658,289.000000 
	C276.488251,284.671631 275.487732,281.369171 271.472473,278.772858 
	C270.108093,277.890656 268.501099,275.626099 268.747284,274.322144 
	C269.695801,269.298584 266.392029,266.229065 264.264618,262.583435 
	C260.073151,255.400711 258.277954,248.027649 262.033081,240.006577 
	C262.455841,239.103561 262.124329,237.094177 261.410675,236.539459 
	C257.824249,233.751770 257.665466,229.924835 258.072296,226.095581 
	C258.603210,221.098434 259.210419,216.034164 260.609497,211.239426 
	C261.217072,209.157104 264.234161,207.892212 265.491516,205.847031 
	C266.411743,204.350128 266.286102,202.191345 266.547302,200.316544 
	C266.669434,199.439774 266.289795,198.362015 266.673004,197.673325 
	C269.896393,191.880676 273.039612,186.023270 276.665863,180.485870 
	C277.924011,178.564621 280.352203,177.279999 282.455658,176.068649 
	C286.986206,173.459503 291.517517,171.605774 293.872589,165.821838 
	C295.475067,161.886230 300.320740,159.243973 303.796021,156.111984 
	C305.118011,154.920609 306.576599,153.816742 308.135376,152.973358 
	C309.290894,152.348160 311.195099,151.478912 311.931519,151.969833 
	C316.899475,155.281708 319.494873,151.889069 321.594818,148.475052 
	C323.326294,145.660065 325.062683,143.655975 328.579620,143.960342 
	C328.906097,143.988586 329.320923,144.022415 329.561951,143.858475 
	C333.680115,141.057495 337.874237,138.349274 341.785309,135.281143 
	C342.450623,134.759232 342.399353,132.353195 341.794861,131.350983 
	C339.147705,126.962181 339.584381,125.777725 344.674164,125.080574 
	C345.494293,124.968246 346.337463,125.024231 347.584991,125.001205 
	C348.000000,140.020889 348.000000,155.041794 348.000000,170.531342 
z"/>
<path fill="#3AA881" opacity="1.000000" stroke="none" 
	d="
M127.389313,44.954201 
	C126.368393,44.777229 125.217789,44.341305 125.204803,44.372917 
	C122.276794,51.497448 113.664886,46.287846 109.773819,51.534943 
	C108.041641,53.870770 105.592171,55.673565 103.476761,57.727036 
	C102.888832,58.297749 102.365509,59.370995 101.754578,59.415359 
	C94.779045,59.921883 92.174538,66.416580 87.330002,69.810379 
	C83.821983,72.267891 80.248360,74.691490 77.057037,77.527481 
	C72.158371,81.880714 67.727295,86.763596 62.790726,91.069679 
	C58.281170,95.003296 53.082535,98.164452 48.692726,102.213676 
	C42.282616,108.126442 36.333012,114.537682 30.170753,120.720131 
	C25.110407,125.797081 20.362537,131.262451 14.836412,135.771606 
	C11.042810,138.867096 6.153208,140.619385 1.376756,142.986038 
	C1.000000,134.645767 1.000000,126.291534 1.359601,117.430313 
	C3.865855,115.717537 6.328241,114.857597 8.099443,113.240585 
	C13.235706,108.551392 17.917418,103.359673 23.105846,98.733398 
	C29.997742,92.588203 37.502903,87.111382 44.203197,80.774925 
	C56.608810,69.042976 68.502945,56.770844 80.877724,45.005165 
	C84.147705,41.896137 88.524162,39.985630 92.168007,37.228077 
	C100.762062,30.724350 110.132004,26.252470 120.723366,23.745691 
	C129.695679,21.622112 138.346619,18.124210 147.114777,15.160557 
	C152.727554,13.263435 158.231232,11.006580 163.921677,9.398983 
	C165.615219,8.920546 167.787216,10.048820 169.718964,10.525980 
	C171.485733,10.962387 173.224091,11.513750 175.019287,12.367014 
	C176.723618,14.816577 178.383606,16.913576 180.043610,19.010578 
	C177.620560,24.085634 177.324722,24.079473 169.353058,18.277988 
	C168.857285,20.128643 168.440323,21.685129 168.029999,23.626114 
	C157.551941,25.107264 146.624344,23.936617 136.895096,31.221977 
	C139.100632,31.484398 141.307938,31.974806 143.511322,31.957880 
	C147.170898,31.929764 149.217651,33.282452 149.003998,37.590675 
	C143.247253,44.317211 135.003845,43.033573 127.389313,44.954201 
z"/>
<path fill="#29A496" opacity="1.000000" stroke="none" 
	d="
M149.468628,289.000000 
	C151.839188,283.799988 155.172852,279.281769 161.469009,277.742981 
	C162.812576,277.414581 164.387299,275.475708 164.723694,274.017670 
	C166.319977,267.098877 166.492096,259.666229 169.135101,253.222000 
	C172.296783,245.513107 172.754501,237.240402 175.646423,229.726288 
	C177.371613,225.243713 180.536636,221.598862 178.233597,216.451309 
	C177.992264,215.911911 178.475235,214.663712 179.013962,214.218735 
	C185.321136,209.009338 185.455109,201.807922 186.206940,194.473358 
	C186.677170,189.886108 189.241226,185.534485 190.686676,181.019806 
	C191.936905,177.114822 192.918137,173.124237 194.052673,169.181396 
	C194.457733,167.773666 194.719162,166.242935 195.471588,165.032913 
	C197.351639,162.009491 199.967300,159.357880 201.399475,156.159302 
	C204.406708,149.443115 206.682724,142.402878 209.572372,135.629410 
	C211.416260,131.307266 213.495880,127.013245 216.047195,123.081253 
	C220.595230,116.071983 223.248856,108.449242 224.996140,100.364418 
	C225.598373,97.577812 226.682037,94.771805 228.132950,92.322487 
	C230.062683,89.064842 231.853653,86.293541 227.581558,83.437408 
	C226.700195,82.848175 225.999313,81.029762 226.187668,79.947060 
	C228.225510,68.233902 221.148209,59.076199 217.673416,48.921703 
	C217.467072,48.318714 217.055161,47.648827 216.541229,47.309189 
	C210.094284,43.048679 206.299362,36.975819 204.216705,28.973965 
	C205.416260,27.620420 206.652969,26.794617 208.009567,26.293091 
	C209.329346,25.805174 210.782578,25.691074 212.158386,25.339279 
	C215.106003,24.585585 218.041489,23.784439 220.981934,23.002731 
	C221.868973,24.486694 222.756012,25.970657 223.700134,28.032852 
	C224.174438,29.887901 224.310043,31.371712 225.065689,32.399773 
	C226.803116,34.763515 229.416458,36.630444 230.643677,39.192646 
	C233.499664,45.155437 235.525299,51.513439 238.327744,57.505348 
	C239.889481,60.844524 241.029999,63.784554 239.154938,67.377678 
	C238.446472,68.735329 238.383987,70.603477 238.519836,72.196899 
	C238.990936,77.721939 240.530441,83.301392 240.066528,88.723526 
	C239.496063,95.391426 237.474731,101.961647 235.777069,108.495247 
	C234.953629,111.664345 232.606720,114.610504 232.444214,117.735321 
	C232.234024,121.777054 233.448669,125.828911 227.433212,126.205444 
	C227.055008,126.229118 226.662064,127.216408 226.405823,127.811333 
	C221.903625,138.264389 217.472305,148.748322 212.909988,159.174973 
	C211.125137,163.254074 208.217163,167.028381 207.306595,171.261139 
	C205.815369,178.193176 205.186188,185.141891 200.020721,190.781525 
	C198.422470,192.526459 198.058014,195.573608 197.556992,198.109177 
	C196.883652,201.516571 197.292618,205.268372 196.057388,208.408310 
	C193.031219,216.100845 188.336533,223.141144 188.136322,231.844421 
	C188.024429,236.708191 187.552200,241.592514 186.823227,246.404068 
	C186.248947,250.194565 186.210907,255.247589 183.830002,257.309204 
	C180.159271,260.487671 179.358643,263.677307 178.870422,267.987976 
	C178.179443,274.088837 181.493896,281.529785 173.712479,285.710114 
	C173.070984,286.054718 173.218872,287.868713 173.000000,289.000000 
	C165.312424,289.000000 157.624832,289.000000 149.468628,289.000000 
z"/>
<path fill="#20A07F" opacity="1.000000" stroke="none" 
	d="
M1.000000,226.449982 
	C5.482837,226.532761 8.984700,228.372543 11.729623,232.260452 
	C13.864225,235.283875 17.521130,236.220764 21.021862,237.705612 
	C27.355095,240.391876 35.552341,238.718338 40.274181,245.391113 
	C40.914791,246.296417 42.558067,246.736755 43.807335,246.924194 
	C49.064407,247.712936 54.343113,248.366913 59.623844,248.985260 
	C63.230495,249.407562 67.019966,250.331329 68.820312,245.503510 
	C69.002853,245.013977 71.671814,244.775818 72.588531,245.360016 
	C75.589157,247.272217 78.487595,248.408463 81.930740,246.682907 
	C82.355499,246.470032 82.959793,246.314682 83.384140,246.445801 
	C93.589417,249.598831 99.654648,242.853867 106.810242,237.515244 
	C111.944588,233.684631 117.260689,230.365219 119.895592,224.385040 
	C122.255951,219.027985 123.771172,213.298447 126.133446,207.942383 
	C128.486694,202.606766 131.086472,197.308563 134.251129,192.430527 
	C135.976288,189.771347 138.275192,187.933075 137.521713,184.141083 
	C137.181488,182.428909 138.761871,180.302689 139.564240,178.403763 
	C140.661743,175.806351 142.718704,173.276108 142.807465,170.664154 
	C142.970322,165.872009 144.197266,162.092484 147.626938,158.594330 
	C149.214539,156.975037 149.834183,154.014053 150.106628,151.573593 
	C150.845291,144.957077 149.872009,138.282135 154.697021,132.292587 
	C158.166321,127.985939 159.608734,122.551720 158.447571,116.322548 
	C157.567856,111.603127 159.184341,106.458473 159.319244,101.492981 
	C159.386932,99.001915 158.656860,96.483307 158.225082,93.987968 
	C158.088623,93.199341 157.294830,92.149696 157.573410,91.721672 
	C160.525833,87.185547 155.982635,83.951088 155.587585,80.015900 
	C155.499313,79.136620 153.603073,77.626198 153.545227,77.672180 
	C148.779800,81.459450 142.309616,73.701447 137.921585,79.945648 
	C137.633896,80.355026 136.105209,80.485527 135.697617,80.127182 
	C130.695389,75.729424 129.272675,80.142906 127.181725,83.705284 
	C125.781845,83.920303 123.808830,84.276421 123.470909,83.690125 
	C121.052017,79.493309 117.411530,80.425728 113.405914,80.981934 
	C112.323517,79.754730 111.877556,77.710976 110.898491,77.411781 
	C106.168465,75.966370 107.327866,72.054993 107.740242,69.188873 
	C107.938385,67.811707 110.873672,66.432266 112.813911,65.768196 
	C122.957611,62.296398 133.114380,58.825737 143.415283,55.873409 
	C146.420563,55.012070 149.914520,55.855801 153.591141,55.963303 
	C157.648682,61.740978 161.115204,67.603844 165.037277,73.144211 
	C166.706924,75.502762 169.435959,77.085030 171.474808,79.219475 
	C172.517776,80.311317 173.578384,81.770340 173.794067,83.190521 
	C174.281738,86.401215 174.658875,89.732635 174.331833,92.938522 
	C173.854492,97.617668 172.511414,102.205170 171.959671,106.881561 
	C171.714874,108.956345 172.502350,111.152916 172.913803,113.915604 
	C168.762970,117.482330 166.082336,122.376160 167.404205,128.804779 
	C167.524216,129.388458 167.348007,130.340607 166.941162,130.679123 
	C160.366592,136.149292 161.746262,144.691895 158.883377,151.586792 
	C158.242844,153.129410 158.920761,155.169617 158.649963,156.928116 
	C158.306091,159.160934 158.342148,162.173431 156.943604,163.395905 
	C151.342407,168.291916 151.188919,174.989304 149.933731,181.394470 
	C149.748383,182.340286 149.474609,183.904984 148.941452,184.045731 
	C144.679947,185.170654 145.354263,189.173965 143.966766,191.986618 
	C140.483871,199.047043 136.830887,206.023392 133.307281,213.064072 
	C132.814911,214.047897 132.239639,215.290344 132.436401,216.264969 
	C133.145767,219.778854 131.724777,221.964005 128.813599,223.700424 
	C127.764389,224.326263 126.433479,225.573654 126.378265,226.599136 
	C125.935226,234.828827 118.486786,238.960785 115.452652,245.641968 
	C115.092285,246.435501 113.617729,247.569565 113.240105,247.381317 
	C107.876625,244.707733 105.119377,250.242249 100.942917,251.175186 
	C100.036385,251.377686 98.792770,251.942108 98.487389,252.668854 
	C96.044182,258.483154 91.999176,257.407074 86.955612,256.542694 
	C80.717270,255.473602 74.142784,256.545654 67.791161,255.913116 
	C59.587887,255.096161 51.452488,253.562561 43.305855,252.227737 
	C39.537785,251.610336 35.770260,250.891388 32.083488,249.913208 
	C29.906664,249.335617 27.849724,248.239349 25.807856,247.235962 
	C22.895895,245.804977 20.044468,244.250458 17.172535,242.738541 
	C15.414927,241.813232 13.695458,240.810852 11.909197,239.945618 
	C8.540323,238.313782 5.135583,236.756012 1.372875,235.083740 
	C1.000000,232.299988 1.000000,229.599976 1.000000,226.449982 
z"/>
<path fill="#2BA49C" opacity="1.000000" stroke="none" 
	d="
M173.467941,289.000000 
	C173.218872,287.868713 173.070984,286.054718 173.712479,285.710114 
	C181.493896,281.529785 178.179443,274.088837 178.870422,267.987976 
	C179.358643,263.677307 180.159271,260.487671 183.830002,257.309204 
	C186.210907,255.247589 186.248947,250.194565 186.823227,246.404068 
	C187.552200,241.592514 188.024429,236.708191 188.136322,231.844421 
	C188.336533,223.141144 193.031219,216.100845 196.057388,208.408310 
	C197.292618,205.268372 196.883652,201.516571 197.556992,198.109177 
	C198.058014,195.573608 198.422470,192.526459 200.020721,190.781525 
	C205.186188,185.141891 205.815369,178.193176 207.306595,171.261139 
	C208.217163,167.028381 211.125137,163.254074 212.909988,159.174973 
	C217.472305,148.748322 221.903625,138.264389 226.405823,127.811333 
	C226.662064,127.216408 227.055008,126.229118 227.433212,126.205444 
	C233.448669,125.828911 232.234024,121.777054 232.444214,117.735321 
	C232.606720,114.610504 234.953629,111.664345 235.777069,108.495247 
	C237.474731,101.961647 239.496063,95.391426 240.066528,88.723526 
	C240.530441,83.301392 238.990936,77.721939 238.519836,72.196899 
	C238.383987,70.603477 238.446472,68.735329 239.154938,67.377678 
	C241.029999,63.784554 239.889481,60.844524 238.327744,57.505348 
	C235.525299,51.513439 233.499664,45.155437 230.643677,39.192646 
	C229.416458,36.630444 226.803116,34.763515 225.065689,32.399773 
	C224.310043,31.371712 224.174438,29.887901 223.880402,28.305653 
	C228.153473,28.097223 230.170670,30.695654 231.520264,34.231289 
	C232.094162,35.734741 232.723679,38.021160 233.834274,38.378632 
	C239.103088,40.074535 241.142761,43.906067 242.731735,48.783932 
	C243.382629,50.782047 246.078705,52.239731 248.054474,53.648674 
	C250.536682,55.418785 253.227753,56.817795 252.296951,60.678471 
	C252.096481,61.509911 252.476669,63.086700 253.080414,63.413799 
	C259.711517,67.006310 259.001221,74.026802 259.526825,79.573479 
	C260.081512,85.427277 257.934296,91.573997 256.725372,97.543716 
	C256.038483,100.935440 254.860580,104.227257 253.920029,107.568634 
	C253.785522,108.046463 253.915176,108.708817 253.631088,109.017799 
	C249.636810,113.362259 248.421295,119.021591 245.993469,124.128632 
	C240.202774,136.309723 233.009323,147.822174 226.426147,159.629074 
	C223.195953,165.422424 219.833344,171.160141 216.974426,177.135361 
	C215.320709,180.591690 214.544556,184.468735 213.390793,188.161850 
	C213.294464,188.470200 213.463303,188.948593 213.285797,189.131836 
	C206.006653,196.646179 207.898682,207.102600 204.725174,215.940811 
	C202.631958,221.770462 200.982605,227.566391 201.668396,234.221298 
	C202.212830,239.504257 198.766937,245.139450 199.028793,250.524124 
	C199.438049,258.940887 196.160690,266.797821 196.528976,275.096924 
	C196.574661,276.126434 195.720413,277.197021 195.278824,278.246735 
	C193.878784,281.574860 192.476730,284.902130 191.037720,288.614868 
	C185.311966,289.000000 179.623917,289.000000 173.467941,289.000000 
z"/>
<path fill="#3FAA8A" opacity="1.000000" stroke="none" 
	d="
M174.974976,12.014454 
	C173.224091,11.513750 171.485733,10.962387 169.718964,10.525980 
	C167.787216,10.048820 165.615219,8.920546 163.921677,9.398983 
	C158.231232,11.006580 152.727554,13.263435 147.114777,15.160557 
	C138.346619,18.124210 129.695679,21.622112 120.723366,23.745691 
	C110.132004,26.252470 100.762062,30.724350 92.168007,37.228077 
	C88.524162,39.985630 84.147705,41.896137 80.877724,45.005165 
	C68.502945,56.770844 56.608810,69.042976 44.203197,80.774925 
	C37.502903,87.111382 29.997742,92.588203 23.105846,98.733398 
	C17.917418,103.359673 13.235706,108.551392 8.099443,113.240585 
	C6.328241,114.857597 3.865855,115.717537 1.359601,116.961655 
	C1.000000,111.311958 1.000000,105.623917 1.373087,99.431213 
	C3.650319,98.021477 5.964052,97.536438 7.392459,96.143517 
	C17.008589,86.766228 26.441320,77.200737 35.924309,67.687088 
	C41.375465,62.218300 46.682858,56.598137 52.297688,51.303516 
	C55.786179,48.013973 59.848190,45.340603 63.441521,42.152550 
	C69.990829,36.341900 76.384872,30.356176 82.840073,24.439548 
	C85.887688,21.646200 88.852715,18.756907 91.993011,16.072334 
	C94.590469,13.851809 97.520248,12.013722 100.067444,9.742274 
	C103.173569,6.972402 106.033554,3.926512 109.000000,1.000000 
	C132.020889,1.000000 155.041794,1.000000 178.531342,1.000000 
	C179.807495,1.635336 180.615005,2.270671 181.712433,3.306844 
	C181.364563,9.736368 176.627014,3.715637 174.565781,6.411268 
	C174.690750,8.122548 174.832855,10.068501 174.974976,12.014454 
z"/>
<path fill="#51B195" opacity="1.000000" stroke="none" 
	d="
M108.531342,1.000000 
	C106.033554,3.926512 103.173569,6.972402 100.067444,9.742274 
	C97.520248,12.013722 94.590469,13.851809 91.993011,16.072334 
	C88.852715,18.756907 85.887688,21.646200 82.840073,24.439548 
	C76.384872,30.356176 69.990829,36.341900 63.441521,42.152550 
	C59.848190,45.340603 55.786179,48.013973 52.297688,51.303516 
	C46.682858,56.598137 41.375465,62.218300 35.924309,67.687088 
	C26.441320,77.200737 17.008589,86.766228 7.392459,96.143517 
	C5.964052,97.536438 3.650319,98.021477 1.373087,98.963272 
	C1.000000,87.312439 1.000000,75.624878 1.357585,63.430893 
	C5.764703,59.647144 9.906550,56.476387 13.841888,53.067242 
	C19.582605,48.094116 25.304466,43.085602 30.800873,37.847183 
	C39.635677,29.427063 48.351040,20.877920 56.969833,12.236638 
	C60.509937,8.687298 63.668098,4.757004 67.000000,1.000000 
	C80.687561,1.000000 94.375122,1.000000 108.531342,1.000000 
z"/>
<path fill="#6EBAA8" opacity="1.000000" stroke="none" 
	d="
M66.531342,1.000000 
	C63.668098,4.757004 60.509937,8.687298 56.969833,12.236638 
	C48.351040,20.877920 39.635677,29.427063 30.800873,37.847183 
	C25.304466,43.085602 19.582605,48.094116 13.841888,53.067242 
	C9.906550,56.476387 5.764703,59.647144 1.357585,62.962234 
	C1.000000,42.404221 1.000000,21.808437 1.000000,1.000000 
	C22.687098,1.000000 44.374889,1.000000 66.531342,1.000000 
z"/>
<path fill="#35A9B8" opacity="1.000000" stroke="none" 
	d="
M348.000000,77.531342 
	C341.799866,75.543625 340.010437,69.513176 336.967346,64.475273 
	C335.992035,62.860638 334.996277,60.882210 333.473511,60.040096 
	C327.163849,56.550709 325.724701,54.150597 326.549530,47.145180 
	C326.949127,43.751354 324.824188,43.092613 322.174866,43.536781 
	C319.100281,44.052250 317.669373,43.497936 317.433044,39.860058 
	C317.311890,37.995258 315.373596,35.499969 313.600006,34.633377 
	C308.562439,32.172024 305.497437,28.558222 304.449463,23.094984 
	C304.266663,22.142065 303.901123,20.677254 303.259155,20.444613 
	C297.330200,18.296015 297.458801,12.021717 294.626007,7.813468 
	C293.616211,6.313353 294.117706,3.795895 293.964661,1.371409 
	C294.444458,1.000000 294.888885,1.000000 295.706329,1.354921 
	C297.376160,5.330079 299.835297,6.959809 303.765930,7.484666 
	C305.987488,7.781312 308.247742,9.644045 309.986664,11.323206 
	C313.934265,15.135234 316.979828,20.214344 321.484680,23.030760 
	C326.925629,26.432384 331.849274,29.728676 335.898193,34.953651 
	C338.871704,38.790844 343.891907,41.042015 348.000000,44.000000 
	C348.000000,55.020893 348.000000,66.041786 348.000000,77.531342 
z"/>
<path fill="#37AABE" opacity="1.000000" stroke="none" 
	d="
M348.000000,43.531342 
	C343.891907,41.042015 338.871704,38.790844 335.898193,34.953651 
	C331.849274,29.728676 326.925629,26.432384 321.484680,23.030760 
	C316.979828,20.214344 313.934265,15.135234 309.986664,11.323206 
	C308.247742,9.644045 305.987488,7.781312 303.765930,7.484666 
	C299.835297,6.959809 297.376160,5.330079 296.039673,1.354921 
	C313.253113,1.000000 330.506256,1.000000 348.000000,1.000000 
	C348.000000,15.019978 348.000000,29.041330 348.000000,43.531342 
z"/>
<path fill="#29A496" opacity="1.000000" stroke="none" 
	d="
M1.000000,271.469727 
	C10.669841,278.592438 23.015278,277.388184 33.879951,281.031952 
	C40.558525,283.271820 47.106026,285.902496 53.856190,288.678833 
	C36.443447,289.000000 18.886896,289.000000 1.000000,289.000000 
	C1.000000,283.317413 1.000000,277.628418 1.000000,271.469727 
z"/>
<path fill="#2BA49C" opacity="1.000000" stroke="none" 
	d="
M175.019287,12.367015 
	C174.832855,10.068501 174.690750,8.122548 174.565781,6.411268 
	C176.627014,3.715637 181.364563,9.736368 182.038422,3.351428 
	C193.686539,3.889880 203.607178,8.846159 212.688614,15.786080 
	C215.463074,17.906271 218.170715,20.113871 220.945450,22.642086 
	C218.041489,23.784439 215.106003,24.585585 212.158386,25.339279 
	C210.782578,25.691074 209.329346,25.805174 208.009567,26.293091 
	C206.652969,26.794617 205.416260,27.620420 204.055984,28.651516 
	C201.439743,27.992708 198.866318,27.052174 196.355347,25.967051 
	C191.142380,23.714254 185.962570,21.384748 180.406372,19.048677 
	C178.383606,16.913576 176.723618,14.816577 175.019287,12.367015 
z"/>
<path fill="#35A9B8" opacity="1.000000" stroke="none" 
	d="
M334.379761,180.664001 
	C335.064728,179.839966 335.807129,179.316910 336.549561,178.793854 
	C336.731415,179.764267 336.913239,180.734665 337.095093,181.705078 
	C336.209137,181.458374 335.323151,181.211670 334.379761,180.664001 
z"/>
<path fill="#1C9E6E" opacity="1.000000" stroke="none" 
	d="
M13.035654,188.388885 
	C18.041512,186.716400 20.308365,182.864426 22.432104,178.512100 
	C23.946627,175.408279 26.509378,172.827087 28.492857,169.936172 
	C29.461571,168.524261 30.178301,166.939117 31.004768,165.430008 
	C33.025249,161.740677 35.043224,158.049973 36.971485,154.525650 
	C38.469639,157.469177 39.231598,161.084518 40.662628,161.372253 
	C44.618805,162.167709 44.802971,158.162155 45.960178,155.495575 
	C46.589661,154.045044 47.713123,152.786377 48.721348,151.527313 
	C50.964935,148.725540 52.946537,145.589615 55.640213,143.302887 
	C59.311234,140.186508 63.455685,137.655685 64.791992,132.605408 
	C73.875511,129.402634 78.180992,121.376465 84.029175,114.251389 
	C85.836159,114.411621 87.160210,114.983597 88.052986,114.586349 
	C90.282547,113.594276 94.183647,115.553101 94.545670,111.119118 
	C92.366974,111.080132 90.188271,111.041145 88.009575,111.002159 
	C89.117287,109.068230 90.224991,107.134300 91.671844,105.100815 
	C97.383003,106.393867 102.905815,107.385910 108.070175,109.330101 
	C111.142853,110.486832 113.786896,112.759117 110.428177,116.941902 
	C107.262688,120.884048 105.444656,125.032280 111.385483,128.968765 
	C114.592583,131.093842 115.071831,134.661453 111.840179,138.010269 
	C110.862808,139.023087 109.992531,141.843231 110.501450,142.324173 
	C115.902664,147.428467 108.887161,153.231537 111.566696,158.401672 
	C111.747742,158.750992 110.902855,159.887299 110.299202,160.349396 
	C102.340591,166.441650 99.152733,174.937592 98.826912,184.486069 
	C98.582695,191.643234 89.020943,204.825439 82.143074,206.195541 
	C81.269257,206.369629 80.043388,206.182404 79.358215,205.663757 
	C75.589600,202.811066 72.636375,205.799088 69.852127,207.333405 
	C68.997284,207.804489 69.719398,211.137222 69.719398,214.056671 
	C70.044373,213.963257 68.882935,214.730301 68.057487,214.462341 
	C63.536674,212.994736 59.126247,211.189804 54.618103,209.679214 
	C52.764229,209.058014 50.755672,208.537109 48.826504,208.566345 
	C41.582260,208.676102 34.893562,210.596176 27.412310,205.683212 
	C21.744705,201.961288 19.567364,195.852402 14.197635,192.500015 
	C13.368818,191.982559 13.425730,190.046417 13.035654,188.388885 
M103.298973,113.901100 
	C103.005501,113.130211 102.712036,112.359314 102.418556,111.588417 
	C101.805260,112.191383 101.191956,112.794357 100.578667,113.397331 
	C101.344582,113.702332 102.110489,114.007324 103.298973,113.901100 
z"/>
<path fill="#1C9E74" opacity="1.000000" stroke="none" 
	d="
M87.706879,111.136505 
	C90.188271,111.041145 92.366974,111.080132 94.545670,111.119118 
	C94.183647,115.553101 90.282547,113.594276 88.052986,114.586349 
	C87.160210,114.983597 85.836159,114.411621 84.358597,114.142563 
	C85.140572,113.093155 86.272377,112.182007 87.706879,111.136505 
z"/>
<path fill="#1C9E74" opacity="1.000000" stroke="none" 
	d="
M103.087692,114.106712 
	C102.110489,114.007324 101.344582,113.702332 100.578659,113.397324 
	C101.191956,112.794357 101.805260,112.191383 102.418564,111.588425 
	C102.712036,112.359314 103.005501,113.130211 103.087692,114.106712 
z"/>
</svg>